<svg xmlns="http://www.w3.org/2000/svg" fill="#22c55e" viewBox="0 0 24 24">
  <path d="M2 17h20v2H2v-2zM3.5 12c.28 0 .5.22.5.5s-.22.5-.5.5-.5-.22-.5-.5.22-.5.5-.5zM7 12c.28 0 .5.22.5.5S7.28 13 7 13s-.5-.22-.5-.5.22-.5.5-.5zm3.5 0c.28 0 .5.22.5.5s-.22.5-.5.5-.5-.22-.5-.5.22-.5.5-.5zM14 12c.28 0 .5.22.5.5s-.22.5-.5.5-.5-.22-.5-.5.22-.5.5-.5zm3.5 0c.28 0 .5.22.5.5s-.22.5-.5.5-.5-.22-.5-.5.22-.5.5-.5zM20.5 12c.28 0 .5.22.5.5s-.22.5-.5.5-.5-.22-.5-.5.22-.5.5-.5z"/>
  <rect x="4" y="6" width="16" height="4" rx="2" fill="#16a34a"/>
</svg>